<?xml version="1.0" encoding="utf-8"?>
<!-- Generator: Adobe Illustrator 16.0.0, SVG Export Plug-In . SVG Version: 6.00 Build 0)  -->
<!DOCTYPE svg PUBLIC "-//W3C//DTD SVG 1.1//EN" "http://www.w3.org/Graphics/SVG/1.1/DTD/svg11.dtd">
<svg version="1.1" id="图层_1" xmlns="http://www.w3.org/2000/svg" xmlns:xlink="http://www.w3.org/1999/xlink" x="0px" y="0px"
	 width="960px" height="540px" viewBox="0 0 960 540" enable-background="new 0 0 960 540" xml:space="preserve">
<path fill="#3D3D63" d="M595,175c-2.56,0-5.118-0.976-7.071-2.929c-3.905-3.905-3.905-10.237,0-14.143l29-29
	c3.906-3.905,10.236-3.905,14.143,0c3.905,3.905,3.905,10.237,0,14.143l-29,29C600.118,174.024,597.559,175,595,175z"/>
<g id="组_766">
	<path id="路径_1806" opacity="0.2" fill="#69BAF9" enable-background="new    " d="M820,509.85c0-187.777-152.223-340-340-340
		c-187.776,0-340,152.223-340,340"/>
	<path id="路径_1807" opacity="0.5" fill="#69BAF9" enable-background="new    " d="M727.618,509.85
		c0-136.813-110.907-247.721-247.719-247.721s-247.72,110.908-247.72,247.721"/>
	<path id="路径_1808" opacity="0.7" fill="#69BAF9" enable-background="new    " d="M635.6,509.85
		c0.218-85.755-69.123-155.45-154.878-155.669c-85.756-0.219-155.451,69.123-155.669,154.878c-0.001,0.264-0.001,0.527,0,0.791"/>
</g>
<g id="组_764" transform="translate(-72.295)">
	<path fill="#3D3D63" d="M807.295,510h-264c-2.761,0-5-2.238-5-5s2.239-5,5-5h264c2.762,0,5,2.238,5,5S810.056,510,807.295,510z"/>
	<path fill="#3D3D63" d="M886.295,510h-58c-2.762,0-5-2.238-5-5s2.238-5,5-5h58c2.762,0,5,2.238,5,5S889.056,510,886.295,510z"/>
	<path fill="#3D3D63" d="M491.295,510h-60c-2.761,0-5-2.238-5-5s2.239-5,5-5h60c2.761,0,5,2.238,5,5S494.056,510,491.295,510z"/>
	<path fill="#3D3D63" d="M396.295,510h-178c-2.761,0-5-2.238-5-5s2.239-5,5-5h178c2.761,0,5,2.238,5,5S399.056,510,396.295,510z"/>
	<ellipse id="椭圆_336" fill="#3D3D63" cx="514.295" cy="505" rx="5" ry="4"/>
</g>
<path fill="#D4E5FA" d="M710.686,461.896l-48.79,48.79c-6.248,6.248-16.379,6.248-22.628,0l-86.974-86.974
	c-6.248-6.249-6.248-16.38,0-22.628l48.79-48.79c6.249-6.249,16.379-6.249,22.628,0l86.974,86.974
	C716.935,445.517,716.935,455.647,710.686,461.896z"/>
<path fill="#3D3D63" d="M650.583,515.373c-4.273,0-8.292-1.664-11.314-4.687l-86.974-86.974c-3.022-3.022-4.687-7.041-4.687-11.314
	c0-4.274,1.665-8.293,4.688-11.314l48.788-48.79c3.022-3.021,7.04-4.686,11.314-4.686c4.273,0,8.291,1.664,11.313,4.686
	l86.974,86.975c3.021,3.021,4.687,7.039,4.687,11.314c0,4.274-1.665,8.293-4.688,11.314l-48.788,48.789
	C658.876,513.708,654.857,515.373,650.583,515.373z M569.265,412.398l81.316,81.317l43.134-43.133l-81.316-81.318L569.265,412.398z"
	/>
<path fill="#D4E5FA" d="M407.686,158.895l-48.79,48.791c-6.249,6.248-16.379,6.248-22.628,0l-86.974-86.975
	c-6.249-6.248-6.249-16.379,0-22.627l48.79-48.79c6.248-6.249,16.379-6.249,22.628,0l86.974,86.974
	C413.934,142.516,413.934,152.647,407.686,158.895z"/>
<path fill="#3D3D63" d="M347.582,212.372c-4.274,0-8.292-1.665-11.314-4.686l-86.974-86.974c-6.238-6.241-6.237-16.391,0-22.627
	l48.791-48.792c3.022-3.021,7.04-4.686,11.313-4.686c4.273,0,8.291,1.664,11.313,4.685l86.975,86.977
	c3.021,3.02,4.687,7.039,4.687,11.313c0,4.274-1.665,8.292-4.687,11.314l-48.79,48.79
	C355.874,210.708,351.856,212.372,347.582,212.372z M266.264,109.399l81.318,81.317l43.133-43.133l-81.317-81.318L266.264,109.399z"
	/>
<path fill="#F4F1EC" d="M468.175,205.51l87.076,87.076c11.098,11.099,11.098,29.092,0,40.189l-96.454,96.453
	c-25.895,25.896-67.879,25.896-93.774,0l-33.491-33.49c-25.895-25.896-25.895-67.88,0-93.774l96.454-96.454
	C439.084,194.412,457.077,194.412,468.175,205.51z"/>
<path fill="#3D3D63" d="M410.467,455.649c-18.698,0-36.276-7.281-49.498-20.502l-35.355-35.355
	c-27.292-27.293-27.292-71.702,0-98.995l101.825-101.823c5.665-5.666,13.199-8.787,21.212-8.787s15.547,3.121,21.214,8.787
	l91.924,91.924c5.666,5.667,8.787,13.2,8.787,21.214c0,8.013-3.121,15.547-8.787,21.213L459.965,435.147
	C446.743,448.368,429.164,455.649,410.467,455.649z M448.65,210.187c-2.671,0-5.182,1.04-7.07,2.929L339.755,314.939
	c-19.495,19.495-19.495,51.215,0,70.71l35.355,35.355c9.444,9.444,22,14.645,35.355,14.645s25.912-5.2,35.355-14.645
	l101.823-101.823c1.889-1.889,2.93-4.399,2.93-7.07c0-2.672-1.041-5.183-2.93-7.071l-91.924-91.924
	C453.833,211.227,451.322,210.187,448.65,210.187z"/>
<path id="路径_2280_1_" fill="#D4E5FA" d="M637.627,222.888c-27.545,27.546-72.205,27.546-99.751,0s-27.546-72.206,0-99.752
	C571.901,156.55,637.627,222.888,637.627,222.888z"/>
<path fill="#3D3D63" d="M587.752,253.548c-21.512,0-41.736-8.377-56.947-23.588c-15.211-15.211-23.588-35.436-23.588-56.947
	s8.377-41.736,23.588-56.947c3.883-3.881,10.164-3.908,14.078-0.063c33.685,33.078,99.19,99.185,99.848,99.849
	c3.875,3.91,3.86,10.217-0.032,14.109C629.487,245.171,609.263,253.548,587.752,253.548z M538.5,137.791
	c-7.33,10.205-11.283,22.409-11.283,35.222c0,16.169,6.297,31.371,17.73,42.805c11.434,11.434,26.635,17.73,42.805,17.73
	c12.8,0,24.994-3.946,35.191-11.263C606.286,205.503,565.82,164.79,538.5,137.791z"/>
<path fill="#3D3D63" d="M508.003,260c-2.736,0-5.461-1.116-7.436-3.311c-3.695-4.105-3.362-10.428,0.743-14.123l30-27
	c4.104-3.694,10.427-3.363,14.122,0.744c3.695,4.105,3.362,10.428-0.743,14.123l-30,27C512.778,259.153,510.386,260,508.003,260z"/>
<path fill="#3D3D63" d="M322.5,189.5c-2.559,0-5.119-0.976-7.071-2.929c-3.905-3.905-3.905-10.237,0-14.143l56-56
	c3.905-3.905,10.237-3.905,14.143,0c3.905,3.905,3.905,10.237,0,14.143l-56,56C327.618,188.524,325.059,189.5,322.5,189.5z"/>
<path fill="#3D3D63" d="M580,445.5c-2.56,0-5.118-0.977-7.071-2.929c-3.905-3.905-3.905-10.237,0-14.143l56-56
	c3.906-3.904,10.236-3.904,14.143,0c3.905,3.905,3.905,10.237,0,14.143l-56,56C585.118,444.523,582.559,445.5,580,445.5z"/>
<path fill="#3D3D63" d="M605,470.5c-2.56,0-5.118-0.977-7.071-2.929c-3.905-3.905-3.905-10.237,0-14.143l56-56
	c3.906-3.904,10.236-3.904,14.143,0c3.905,3.905,3.905,10.237,0,14.143l-56,56C610.118,469.523,607.559,470.5,605,470.5z"/>
<path fill="#3D3D63" d="M629,494.5c-2.56,0-5.118-0.977-7.071-2.929c-3.905-3.905-3.905-10.237,0-14.143l56-56
	c3.906-3.904,10.236-3.904,14.143,0c3.905,3.905,3.905,10.237,0,14.143l-56,56C634.118,493.523,631.559,494.5,629,494.5z"/>
<path fill="#3D3D63" d="M276.5,141.5c-2.559,0-5.119-0.976-7.071-2.929c-3.905-3.905-3.905-10.237,0-14.143l56-56
	c3.905-3.905,10.237-3.905,14.143,0c3.905,3.905,3.905,10.237,0,14.143l-56,56C281.618,140.524,279.059,141.5,276.5,141.5z"/>
<path fill="#3D3D63" d="M299.5,164.5c-2.559,0-5.119-0.976-7.071-2.929c-3.905-3.905-3.905-10.237,0-14.143l56-56
	c3.905-3.905,10.237-3.905,14.143,0c3.905,3.905,3.905,10.237,0,14.143l-56,56C304.618,163.524,302.059,164.5,299.5,164.5z"/>
<path fill="#3D3D63" d="M545,355c-2.56,0-5.118-0.977-7.071-2.929l-129-129c-3.905-3.905-3.905-10.237,0-14.143
	c3.905-3.905,10.237-3.905,14.143,0l129,129c3.905,3.905,3.905,10.237,0,14.143C550.118,354.023,547.559,355,545,355z"/>
<path fill="#3D3D63" d="M449,432c-2.559,0-5.119-0.977-7.071-2.929l-109-109c-3.905-3.905-3.905-10.237,0-14.143
	c3.905-3.904,10.237-3.904,14.143,0l109,109c3.905,3.905,3.905,10.237,0,14.143C454.118,431.023,451.559,432,449,432z"/>
<path fill="#F4F1EC" d="M329.062,460.945l-30.184-30.184c-6.251-6.251-6.251-16.387,0-22.638l2.702-2.702
	c14.586-14.585,38.235-14.585,52.822,0l0,0c14.585,14.587,14.585,38.236,0,52.822l-2.702,2.701
	C345.448,467.196,335.313,467.196,329.062,460.945z"/>
<path fill="#3D3D63" d="M341.276,467.469c-5.387,0-10.451-2.098-14.261-5.906l-28.755-28.755c-7.863-7.863-7.863-20.658,0-28.521
	l0.943-0.942c7.649-7.649,17.82-11.862,28.638-11.862s20.988,4.213,28.638,11.862c15.791,15.791,15.791,41.485,0,57.276
	l-0.942,0.942C351.727,465.372,346.663,467.469,341.276,467.469z M327.841,411.482c-5.476,0-10.624,2.133-14.496,6.005l-0.943,0.942
	c-0.065,0.065-0.065,0.171,0,0.236l28.755,28.755c0.05,0.051,0.187,0.051,0.236,0l0.942-0.942c7.993-7.993,7.993-20.998,0-28.991
	C338.465,413.615,333.317,411.482,327.841,411.482z"/>
<path fill="#61617E" d="M263.331,501.918c-2.002,0-4.006-0.747-5.559-2.248c-3.177-3.07-3.263-8.135-0.192-11.312l30.927-31.995
	c3.07-3.178,8.134-3.263,11.312-0.192c3.177,3.07,3.263,8.135,0.192,11.312l-30.927,31.995
	C267.514,501.101,265.424,501.918,263.331,501.918z"/>
<path fill="#61617E" d="M304.93,513.156c-2.002,0-4.006-0.747-5.559-2.248c-3.177-3.07-3.263-8.135-0.192-11.312l16.798-17.378
	c3.069-3.178,8.135-3.263,11.312-0.192c3.177,3.07,3.263,8.135,0.192,11.312l-16.798,17.378
	C309.114,512.34,307.024,513.156,304.93,513.156z"/>
<path fill="#61617E" d="M259.006,452.124c-2.002,0-4.006-0.747-5.559-2.248c-3.177-3.07-3.263-8.135-0.192-11.312l18.547-19.188
	c3.07-3.179,8.134-3.264,11.312-0.192c3.177,3.07,3.263,8.135,0.192,11.312l-18.547,19.188
	C263.189,451.307,261.099,452.124,259.006,452.124z"/>
<circle fill="#7AC1FA" cx="436" cy="325" r="40"/>
<path fill="#3D3D63" d="M436,365c-22.056,0-40-17.944-40-40s17.944-40,40-40s40,17.944,40,40S458.056,365,436,365z M436,305
	c-11.028,0-20,8.972-20,20s8.972,20,20,20s20-8.972,20-20S447.028,305,436,305z"/>
<path fill="#3D3D63" d="M678,488c-2.56,0-5.118-0.977-7.071-2.929l-395-395c-3.905-3.905-3.905-10.237,0-14.143
	c3.905-3.904,10.237-3.904,14.143,0l395,395c3.905,3.905,3.905,10.237,0,14.143C683.118,487.023,680.559,488,678,488z"/>
<g id="组_1056" transform="translate(177 82)">
	<g id="组_781" transform="translate(479.97 0)">
		<path fill="#FFC670" d="M32.692,20.346H0c-2.209,0-4-1.791-4-4s1.791-4,4-4h32.691c2.209,0,4,1.791,4,4
			S34.901,20.346,32.692,20.346z"/>
		<path fill="#FFC670" d="M16.346,36.692c-2.209,0-4-1.791-4-4V0c0-2.209,1.791-4,4-4s4,1.791,4,4v32.692
			C20.346,34.901,18.555,36.692,16.346,36.692z"/>
	</g>
	<g id="组_782" transform="translate(447.901 127.696)">
		<g id="组_775" transform="translate(0 0)">
			<g id="组_770" transform="translate(20.007)">
				<path fill="#FFC670" d="M0,44.014c-2.209,0-4-1.791-4-4v-7.321c0-2.209,1.791-4,4-4s4,1.791,4,4v7.321
					C4,42.223,2.209,44.014,0,44.014z"/>
				<path fill="#FFC670" d="M0,11.322c-2.209,0-4-1.791-4-4V0c0-2.209,1.791-4,4-4s4,1.791,4,4v7.322C4,9.531,2.209,11.322,0,11.322
					z"/>
			</g>
			<g id="组_771" transform="translate(40.014 20.007) rotate(90)">
				<path fill="#FFC670" d="M4,32.692v7.322c0,2.209-1.791,4-4,4s-4-1.791-4-4v-7.322c0-2.209,1.791-4,4-4S4,30.483,4,32.692z"/>
				<path fill="#FFC670" d="M4,0v7.321c0,2.209-1.791,4-4,4s-4-1.791-4-4V0c0-2.209,1.791-4,4-4S4-2.209,4,0z"/>
			</g>
			<g id="组_772" transform="translate(34.154 5.86) rotate(45)">
				<path fill="#FFC670" d="M2.829,42.842c-0.724,0.724-1.724,1.171-2.828,1.171c-2.209,0-4-1.791-4.001-3.999L-4,32.693
					c0-2.21,1.791-4,4-4.001c2.209,0,4,1.791,4.001,3.999l0.001,7.322C4.001,41.118,3.553,42.118,2.829,42.842z"/>
				<path fill="#FFC670" d="M2.828,10.15c-0.724,0.724-1.724,1.172-2.829,1.172c-2.209,0-4-1.791-3.999-4.001L-3.999,0
					c0.001-2.21,1.793-4,4.001-4C2.21-4,4.001-2.209,4.001,0L4,7.322C3.999,8.427,3.552,9.426,2.828,10.15z"/>
			</g>
			<g id="组_773" transform="translate(34.154 34.154) rotate(135)">
				<path fill="#FFC670" d="M2.828-2.829C3.552-2.105,4-1.105,4-0.001v7.322c0,2.21-1.791,4-4,4c-2.208,0.001-4-1.792-4-4V0
					c0-2.21,1.791-4,4-4C1.104-4.001,2.105-3.553,2.828-2.829z"/>
				<path fill="#FFC670" d="M2.828,29.864C3.553,30.588,4,31.588,4,32.693l-0.001,7.322c0,2.209-1.791,4-4.001,3.999
					c-2.21-0.001-4-1.793-4-4.001L-4,32.691c0-2.209,1.791-4,4.001-3.999C1.105,28.693,2.105,29.14,2.828,29.864z"/>
			</g>
		</g>
	</g>
	<g id="路径_1815" transform="translate(571.976 206.772)">
		<path fill="none" d="M16.951,0c9.361,0,16.95,7.589,16.95,16.95s-7.589,16.95-16.95,16.95S0,26.312,0,16.95S7.589,0,16.951,0z"/>
		<path fill="#FFC670" d="M16.95,8C12.015,8,8,12.015,8,16.95c0,4.935,4.015,8.949,8.949,8.949c4.936,0,8.95-4.015,8.95-8.949
			C25.9,12.015,21.885,8,16.95,8 M16.95,0C26.311,0,33.9,7.589,33.9,16.95c0,9.36-7.589,16.949-16.95,16.949
			C7.589,33.9,0,26.311,0,16.95C0,7.589,7.589,0,16.95,0z"/>
	</g>
	<g id="路径_1816" transform="translate(481.167 368.293)">
		<path fill="none" d="M14.128,0.001c7.802,0,14.127,6.324,14.127,14.127c0,7.802-6.325,14.127-14.127,14.127
			c-7.803,0-14.127-6.325-14.127-14.127C0.001,6.325,6.325,0.001,14.128,0.001z"/>
		<path fill="#FFC670" d="M14.128,8.001c-3.379,0-6.127,2.748-6.127,6.127c0,3.378,2.748,6.127,6.127,6.127
			c3.378,0,6.127-2.749,6.127-6.127C20.255,10.749,17.506,8.001,14.128,8.001 M14.128,0.001c7.802,0,14.127,6.324,14.127,14.127
			c0,7.802-6.325,14.127-14.127,14.127c-7.803,0-14.127-6.325-14.127-14.127C0.001,6.325,6.325,0.001,14.128,0.001z"/>
	</g>
	<g id="路径_1817" transform="translate(43.926 93.692)">
		<path fill="none" d="M20.356,0c11.242,0,20.356,9.113,20.356,20.355c0,11.243-9.114,20.356-20.356,20.356S0,31.599,0,20.356
			C0,9.113,9.114,0,20.356,0z"/>
		<path fill="#FFC670" d="M20.356,8C13.543,8,8,13.543,8,20.356c0,6.813,5.543,12.356,12.356,12.356
			c6.813,0,12.355-5.543,12.355-12.356C32.711,13.543,27.168,8,20.356,8 M20.356,0c11.242,0,20.355,9.113,20.355,20.355
			s-9.113,20.356-20.355,20.356S0,31.598,0,20.356S9.114,0,20.356,0z"/>
	</g>
	<g id="组_783" transform="translate(0 322.474)">
		<path fill="#FFC670" d="M24.703,17.302H0c-2.209,0-4-1.791-4-4s1.791-4,4-4h24.703c2.209,0,4,1.791,4,4
			S26.912,17.302,24.703,17.302z"/>
		<path fill="#FFC670" d="M12.352,28.703c-2.209,0-4-1.791-4-4V0c0-2.209,1.791-4,4-4s4,1.791,4,4v24.703
			C16.352,26.912,14.561,28.703,12.352,28.703z"/>
	</g>
</g>
</svg>
